# xmcd
#
# Track frame offsets:
#	150
#	13988
#	23346
#	37121
#	46376
#
# Disc length: 739 seconds
#
# Revision: 1
# Processed by: cddbd v1.5.1PL0 Copyright (c) Steve Scherf et al.
# Submitted via: CDex 1.50Beta5
#
DISCID=3602e105
DTITLE=チビミミ - チビミミナガバンディクート
DYEAR=1900
DGENRE=
TTITLE0=チビミミナガバンディクート
TTITLE1=チビミミ/Happy Happy おめでとう!!
TTITLE2=チビミミ/チビミミナガバンディクート(カラオケ)
TTITLE3=チビミミ/Happy Happy おめでとう!!(半カラオケ)
TTITLE4=チビミミ/Happy Happy おめでとう!!(カラオケ)
EXTD=
EXTT0=
EXTT1=
EXTT2=
EXTT3=
EXTT4=
PLAYORDER=
